<mxfile host="app.diagrams.net" modified="2023-11-03T18:38:23.109Z" agent="Mozilla/5.0 (Macintosh; Intel Mac OS X 10_15_7) AppleWebKit/537.36 (KHTML, like Gecko) Chrome/119.0.0.0 Safari/537.36" version="22.0.8" etag="K7H1BDDBX2A-K4Uo57LM" type="github">
  <diagram name="PÃ¡gina-1" id="uC-R7_MRmKniTFTff1HJ">
    <mxGraphModel>
      <root>
        <mxCell id="0" />
        <mxCell id="1" parent="0" />
      </root>
    </mxGraphModel>
  </diagram>
</mxfile>
